<svg version="1.1" xmlns="http://www.w3.org/2000/svg" viewBox="0 0 317 275" width="317" height="275" class="excalidraw-svg">
  <!-- svg-source:excalidraw -->
  
  <defs>
    <style class="style-fonts">
      @font-face {
        font-family: "Virgil";
        src: url("https://excalidraw.com/Virgil.woff2");
      }
      @font-face {
        font-family: "Cascadia";
        src: url("https://excalidraw.com/Cascadia.woff2");
      }
      @font-face {
        font-family: "Assistant";
        src: url("https://excalidraw.com/Assistant-Regular.woff2");
      }
    </style>
    
  </defs>
  <rect x="0" y="0" width="317" height="275" fill="#ffffff"/><g stroke-linecap="round" transform="translate(10 10) rotate(0 148.5 127.5)"><path d="M124.5 0.86 C139.37 -3.3, 158.07 -0.41, 173.78 2.14 C189.5 4.68, 204.87 9.51, 218.8 16.13 C232.72 22.75, 246.45 31.77, 257.32 41.85 C268.18 51.93, 277.59 64.11, 283.99 76.61 C290.4 89.11, 294.4 103.28, 295.75 116.86 C297.1 130.45, 296.01 144.6, 292.08 158.11 C288.15 171.63, 281.04 186.29, 272.15 197.95 C263.26 209.61, 251.28 219.86, 238.74 228.08 C226.21 236.3, 212.11 242.73, 196.95 247.26 C181.79 251.79, 163.84 255.21, 147.79 255.26 C131.75 255.31, 115.84 251.94, 100.67 247.57 C85.5 243.2, 69.64 237.58, 56.77 229.04 C43.9 220.5, 32.29 207.97, 23.44 196.34 C14.6 184.7, 7.48 172.49, 3.71 159.22 C-0.06 145.95, -0.56 130.55, 0.81 116.72 C2.18 102.88, 5.54 88.75, 11.95 76.21 C18.35 63.67, 28.26 51.56, 39.22 41.48 C50.18 31.4, 60.99 22.6, 77.71 15.73 C94.44 8.87, 126.97 2.58, 139.55 0.29 C152.12 -2, 153.1 0.02, 153.17 1.99 M171.53 0.18 C186.72 0.25, 202.27 7.95, 216.3 14.51 C230.34 21.08, 244.45 29.65, 255.72 39.57 C266.98 49.48, 276.94 61.53, 283.9 74 C290.86 86.47, 296.09 100.55, 297.48 114.38 C298.87 128.22, 296.31 143.51, 292.23 157.02 C288.14 170.52, 281.53 183.54, 272.97 195.41 C264.41 207.27, 253.04 219.5, 240.87 228.18 C228.71 236.86, 215.1 242.89, 199.99 247.51 C184.88 252.13, 166.45 255.75, 150.2 255.92 C133.95 256.08, 117.58 252.91, 102.49 248.48 C87.41 244.06, 72.49 237.5, 59.69 229.38 C46.89 221.25, 34.92 210.99, 25.68 199.74 C16.44 188.5, 8.63 175.37, 4.25 161.91 C-0.14 148.46, -1.81 132.84, -0.61 119.01 C0.59 105.19, 5.05 91.81, 11.47 78.97 C17.88 66.12, 27.2 52.38, 37.88 41.95 C48.55 31.52, 61.52 22.8, 75.52 16.38 C89.53 9.96, 105.85 5.96, 121.91 3.43 C137.97 0.89, 164.02 1.28, 171.87 1.18 C179.73 1.09, 169.77 0.84, 169.04 2.86" stroke="#1e1e1e" stroke-width="2" fill="none"/></g></svg>