<svg version="1.1" xmlns="http://www.w3.org/2000/svg" viewBox="0 0 317 330" width="317" height="330" class="excalidraw-svg">
  <!-- svg-source:excalidraw -->
  
  <defs>
    <style class="style-fonts">
      @font-face {
        font-family: "Virgil";
        src: url("https://excalidraw.com/Virgil.woff2");
      }
      @font-face {
        font-family: "Cascadia";
        src: url("https://excalidraw.com/Cascadia.woff2");
      }
      @font-face {
        font-family: "Assistant";
        src: url("https://excalidraw.com/Assistant-Regular.woff2");
      }
    </style>
    
  </defs>
  <rect x="0" y="0" width="317" height="330" fill="#ffffff"/><g stroke-linecap="round" transform="translate(10 10) rotate(0 148.5 155)"><path d="M32 0 C88.9 -0.13, 145.22 1.31, 265 0 M32 0 C102.51 0.53, 173.1 1.49, 265 0 M265 0 C285.7 0.74, 295.28 9.18, 297 32 M265 0 C286.26 -1.04, 296.5 11, 297 32 M297 32 C297.8 93.9, 297.56 155.64, 297 278 M297 32 C298.51 99.04, 299.03 166.58, 297 278 M297 278 C296.8 300.42, 286.63 310.54, 265 310 M297 278 C298.65 298.1, 288.56 308.52, 265 310 M265 310 C189.89 310.94, 114.21 311.67, 32 310 M265 310 C197.8 310.34, 130.29 310.49, 32 310 M32 310 C9.65 311.18, 0.97 298.53, 0 278 M32 310 C12.7 310.11, -0.03 301.07, 0 278 M0 278 C-1.22 186.08, -0.9 96.22, 0 32 M0 278 C-0.03 186.73, 0.92 95.1, 0 32 M0 32 C1.2 9.04, 11.94 0.53, 32 0 M0 32 C1.55 10.08, 8.79 0.74, 32 0" stroke="#1e1e1e" stroke-width="2" fill="none"/></g><g stroke-linecap="round"><g transform="translate(50 115) rotate(0 41.5 31.5)"><path d="M0.81 -0.31 C14.35 10.2, 68.14 52.82, 82.02 63.38 M-0.23 -1.52 C13.61 8.6, 70.19 50.48, 84.22 61.46" stroke="#1e1e1e" stroke-width="2" fill="none"/></g></g><mask/><g stroke-linecap="round"><g transform="translate(95 195) rotate(0 85 -42)"><path d="M0.02 1.02 C28.34 -13.13, 142.72 -70.5, 171.04 -84.76 M-1.43 0.52 C26.73 -13.51, 142.21 -69.62, 170.63 -83.63" stroke="#1e1e1e" stroke-width="2" fill="none"/></g><g transform="translate(95 195) rotate(0 85 -42)"><path d="M153.29 -65.63 C161.81 -71, 165.66 -79.98, 170.63 -83.63 M153.29 -65.63 C158.78 -70.9, 161.22 -74.17, 170.63 -83.63" stroke="#1e1e1e" stroke-width="2" fill="none"/></g><g transform="translate(95 195) rotate(0 85 -42)"><path d="M145.77 -80.99 C157.27 -80.31, 164.09 -83.24, 170.63 -83.63 M145.77 -80.99 C153.05 -82.4, 157.38 -81.79, 170.63 -83.63" stroke="#1e1e1e" stroke-width="2" fill="none"/></g></g><mask/></svg>