<svg version="1.1" xmlns="http://www.w3.org/2000/svg" viewBox="0 0 451 357" width="451" height="357" class="excalidraw-svg">
  <!-- svg-source:excalidraw -->
  
  <defs>
    <style class="style-fonts">
      @font-face {
        font-family: "Virgil";
        src: url("https://excalidraw.com/Virgil.woff2");
      }
      @font-face {
        font-family: "Cascadia";
        src: url("https://excalidraw.com/Cascadia.woff2");
      }
      @font-face {
        font-family: "Assistant";
        src: url("https://excalidraw.com/Assistant-Regular.woff2");
      }
    </style>
    
  </defs>
  <rect x="0" y="0" width="451" height="357" fill="#ffffff"/><g stroke-linecap="round" transform="translate(24 10) rotate(0 79.5 52.5)"><path d="M112.56 5.38 C123.13 7.63, 134.37 13.98, 141.91 19.67 C149.45 25.37, 155.34 32.35, 157.81 39.54 C160.27 46.72, 159.29 55.18, 156.72 62.78 C154.14 70.38, 149.43 79.07, 142.36 85.12 C135.28 91.17, 124.54 95.63, 114.27 99.06 C104 102.49, 92.07 105.66, 80.73 105.69 C69.39 105.71, 56.75 102.47, 46.23 99.22 C35.72 95.97, 25.11 91.85, 17.64 86.18 C10.16 80.51, 4.01 72.66, 1.38 65.19 C-1.25 57.71, -0.8 48.97, 1.88 41.33 C4.56 33.69, 10.47 25.3, 17.48 19.35 C24.5 13.4, 33.6 8.95, 43.97 5.64 C54.34 2.32, 67.55 -0.63, 79.68 -0.56 C91.81 -0.5, 110.28 4.52, 116.73 6.05 C123.19 7.57, 119.06 7.84, 118.42 8.59 M67.93 0.7 C78.65 -1.05, 92.95 0.62, 103.7 2.63 C114.45 4.64, 124.05 7.44, 132.43 12.74 C140.81 18.05, 149.46 27.13, 153.98 34.44 C158.51 41.76, 160.67 49.41, 159.6 56.62 C158.54 63.83, 153.36 71.24, 147.6 77.7 C141.83 84.16, 134.26 91.03, 125.02 95.38 C115.79 99.72, 103.83 102.34, 92.2 103.75 C80.57 105.15, 66.49 105.92, 55.23 103.81 C43.97 101.69, 32.77 96.49, 24.65 91.06 C16.52 85.63, 10.42 78.56, 6.48 71.24 C2.55 63.92, 0.53 54.91, 1.04 47.16 C1.55 39.42, 4.06 31.21, 9.54 24.75 C15.02 18.3, 24.39 12.38, 33.91 8.42 C43.42 4.46, 60.85 2.15, 66.63 1 C72.41 -0.14, 67.96 0.97, 68.59 1.56" stroke="#1e1e1e" stroke-width="2" fill="none"/></g><g transform="translate(61 266) rotate(0 164.5 -59)" stroke="none"><path fill="#1e1e1e" d="M 2.01,-2.38 Q 2.01,-2.38 5.70,0.82 9.39,4.03 15.33,7.57 21.27,11.10 32.97,13.68 44.66,16.25 53.13,15.68 61.59,15.11 68.83,11.36 76.06,7.60 84.96,-7.15 93.86,-21.91 98.86,-38.41 103.85,-54.91 105.12,-70.97 106.39,-87.04 104.38,-103.79 102.36,-120.54 100.37,-130.24 98.38,-139.95 96.45,-145.34 94.52,-150.73 93.38,-152.70 92.24,-154.66 87.93,-152.10 83.63,-149.53 80.59,-144.02 77.55,-138.50 75.91,-131.18 74.27,-123.85 75.54,-112.66 76.81,-101.47 79.28,-93.94 81.76,-86.41 85.41,-81.22 89.06,-76.03 99.10,-72.89 109.14,-69.75 117.87,-69.45 126.60,-69.16 137.54,-72.40 148.49,-75.65 155.75,-78.73 163.02,-81.80 168.33,-84.79 173.65,-87.78 177.60,-90.45 181.55,-93.13 184.89,-95.08 188.24,-97.03 193.13,-96.65 198.03,-96.27 201.82,-92.22 205.62,-88.16 208.59,-79.85 211.57,-71.53 213.65,-51.49 215.73,-31.44 216.30,-15.78 216.86,-0.12 215.94,15.25 215.02,30.63 212.30,42.50 209.57,54.37 206.93,61.24 204.28,68.10 201.13,72.49 197.97,76.88 192.86,78.38 187.74,79.87 178.89,76.27 170.03,72.66 164.14,69.37 158.25,66.08 151.12,61.50 144.00,56.92 138.49,53.88 132.98,50.85 128.13,48.73 123.28,46.62 115.66,44.91 108.03,43.20 101.95,42.46 95.86,41.73 90.64,41.12 85.42,40.51 77.93,39.08 70.43,37.66 64.24,35.58 58.05,33.49 52.42,30.53 46.80,27.57 40.66,23.71 34.53,19.85 28.80,16.22 23.06,12.58 14.84,6.99 6.62,1.40 -2.10,-5.05 -10.83,-11.51 -22.89,-32.71 -34.95,-53.92 -40.31,-68.17 -45.67,-82.42 -44.44,-96.31 -43.21,-110.20 -10.13,-119.37 22.93,-128.54 63.70,-126.28 104.47,-124.02 144.56,-114.67 184.65,-105.32 220.95,-94.15 257.24,-82.98 287.40,-70.73 317.56,-58.48 332.98,-51.25 348.41,-44.02 356.56,-38.83 364.71,-33.63 369.91,-25.62 375.11,-17.61 376.74,-10.46 378.38,-3.30 375.82,6.42 373.27,16.16 369.88,22.49 366.50,28.82 356.73,32.31 346.96,35.80 334.99,28.34 323.02,20.88 315.27,6.40 307.52,-8.07 303.13,-31.92 298.73,-55.78 296.62,-70.71 294.50,-85.64 293.32,-94.85 292.14,-104.06 289.96,-111.78 287.78,-119.51 284.79,-123.59 281.80,-127.66 278.04,-129.20 274.27,-130.74 268.94,-130.89 263.60,-131.03 253.27,-126.90 242.94,-122.77 235.89,-119.03 228.85,-115.29 221.61,-110.31 214.37,-105.32 209.50,-102.01 204.63,-98.70 199.92,-97.22 195.20,-95.74 188.31,-101.04 181.43,-106.33 175.94,-114.87 170.46,-123.40 166.72,-131.66 162.98,-139.93 159.37,-150.39 155.76,-160.84 153.66,-167.58 151.56,-174.31 150.10,-178.87 148.64,-183.43 146.91,-187.57 145.18,-191.70 142.97,-191.32 140.77,-190.93 137.32,-181.71 133.87,-172.48 131.33,-164.65 128.78,-156.81 127.79,-153.40 126.81,-150.00 126.56,-149.50 126.32,-149.01 125.92,-148.62 125.53,-148.23 125.04,-147.98 124.54,-147.74 123.99,-147.66 123.44,-147.59 122.90,-147.69 122.36,-147.80 121.88,-148.07 121.40,-148.35 121.03,-148.76 120.66,-149.17 120.44,-149.68 120.23,-150.19 120.18,-150.74 120.14,-151.29 120.27,-151.83 120.41,-152.36 120.71,-152.83 121.01,-153.29 121.44,-153.64 121.87,-153.98 122.39,-154.17 122.91,-154.36 123.46,-154.38 124.01,-154.39 124.54,-154.23 125.07,-154.06 125.52,-153.74 125.97,-153.42 126.29,-152.97 126.61,-152.52 126.77,-151.99 126.93,-151.46 126.91,-150.91 126.90,-150.35 126.71,-149.84 126.51,-149.32 126.17,-148.89 125.82,-148.46 125.35,-148.16 124.89,-147.86 124.35,-147.73 123.81,-147.60 123.26,-147.64 122.71,-147.69 122.20,-147.91 121.70,-148.13 121.29,-148.50 120.88,-148.87 120.61,-149.35 120.33,-149.83 120.23,-150.38 120.13,-150.92 120.20,-151.47 120.28,-152.02 120.28,-152.01 120.28,-152.01 121.39,-155.38 122.50,-158.75 124.89,-166.87 127.27,-174.98 131.37,-185.70 135.47,-196.41 138.66,-198.40 141.84,-200.39 144.80,-199.34 147.77,-198.30 148.91,-196.02 150.05,-193.74 151.86,-189.39 153.67,-185.05 155.14,-180.47 156.61,-175.89 158.69,-169.23 160.78,-162.57 164.30,-152.35 167.83,-142.12 171.41,-134.19 174.98,-126.27 179.95,-118.34 184.92,-110.42 190.46,-105.41 195.99,-100.40 198.85,-101.73 201.71,-103.06 206.55,-106.35 211.40,-109.65 218.89,-114.79 226.39,-119.94 233.71,-123.80 241.03,-127.67 252.33,-131.96 263.64,-136.25 269.97,-135.91 276.30,-135.56 281.04,-133.26 285.79,-130.96 289.29,-125.99 292.79,-121.03 295.07,-112.88 297.35,-104.74 298.53,-95.56 299.71,-86.37 301.80,-71.55 303.90,-56.72 308.05,-33.58 312.20,-10.44 319.16,3.14 326.12,16.73 336.57,23.90 347.02,31.06 354.82,28.38 362.63,25.70 365.42,20.22 368.22,14.73 370.74,6.13 373.25,-2.46 371.94,-8.68 370.63,-14.90 366.18,-22.13 361.73,-29.36 353.95,-34.31 346.17,-39.27 330.88,-46.44 315.58,-53.61 285.64,-65.79 255.70,-77.96 219.58,-89.08 183.46,-100.21 143.81,-109.49 104.16,-118.77 64.18,-121.11 24.21,-123.45 -8.22,-115.03 -40.65,-106.61 -40.69,-95.35 -40.73,-84.10 -35.55,-70.29 -30.37,-56.49 -18.97,-36.04 -7.58,-15.59 0.99,-9.26 9.57,-2.94 17.72,2.60 25.87,8.15 31.60,11.78 37.33,15.41 43.30,19.17 49.26,22.93 54.50,25.72 59.74,28.52 65.58,30.51 71.43,32.50 78.73,33.89 86.03,35.29 91.27,35.90 96.50,36.51 102.85,37.29 109.19,38.07 117.28,39.93 125.38,41.79 130.45,44.02 135.52,46.24 141.18,49.36 146.85,52.49 153.83,56.98 160.82,61.47 166.48,64.65 172.14,67.82 179.64,71.31 187.14,74.81 190.75,74.06 194.36,73.32 196.84,69.73 199.33,66.15 201.84,59.66 204.36,53.16 207.00,41.73 209.64,30.30 210.53,15.18 211.42,0.07 210.83,-15.40 210.25,-30.88 208.26,-50.30 206.27,-69.71 203.73,-77.13 201.18,-84.55 198.77,-87.74 196.35,-90.93 193.39,-91.38 190.43,-91.82 187.46,-90.30 184.50,-88.77 180.36,-85.98 176.23,-83.18 170.65,-80.06 165.07,-76.94 157.52,-73.76 149.97,-70.58 138.22,-67.23 126.48,-63.88 117.00,-64.29 107.52,-64.71 96.38,-68.64 85.23,-72.58 80.96,-78.63 76.70,-84.68 74.08,-92.78 71.46,-100.87 70.21,-112.92 68.96,-124.97 70.86,-133.09 72.76,-141.21 76.71,-147.68 80.65,-154.15 86.01,-156.79 91.37,-159.43 95.38,-156.05 99.39,-152.68 101.48,-146.85 103.56,-141.02 105.60,-131.09 107.63,-121.17 109.67,-103.90 111.71,-86.63 110.35,-70.00 108.98,-53.37 103.73,-36.25 98.48,-19.12 88.67,-3.47 78.86,12.17 70.49,16.38 62.12,20.58 52.81,21.17 43.50,21.76 30.96,18.94 18.42,16.11 11.98,12.36 5.55,8.61 1.76,5.49 -2.01,2.38 -2.27,2.10 -2.53,1.83 -2.71,1.50 -2.89,1.17 -2.99,0.81 -3.09,0.44 -3.10,0.07 -3.10,-0.30 -3.02,-0.67 -2.94,-1.04 -2.77,-1.37 -2.61,-1.71 -2.36,-2.00 -2.12,-2.29 -1.81,-2.51 -1.51,-2.73 -1.16,-2.87 -0.81,-3.01 -0.44,-3.06 -0.07,-3.12 0.30,-3.08 0.67,-3.04 1.03,-2.92 1.38,-2.79 1.70,-2.59 2.01,-2.38 2.01,-2.38 L 2.01,-2.38 Z"/></g></svg>